<?xml version="1.0" standalone="no"?>
<!DOCTYPE svg PUBLIC "-//W3C//DTD SVG 20010904//EN"
 "http://www.w3.org/TR/2001/REC-SVG-20010904/DTD/svg10.dtd">
<svg version="1.0" xmlns="http://www.w3.org/2000/svg"
 width="700.000000pt" height="700.000000pt" viewBox="0 0 700.000000 700.000000"
 preserveAspectRatio="xMidYMid meet">
<metadata>
Created by potrace 1.14, written by Peter Selinger 2001-2017
</metadata>
<g transform="translate(0.000000,700.000000) scale(0.100000,-0.100000)"
fill="#000000" stroke="none">
<path d="M1236 6118 c-180 -26 -347 -207 -358 -390 l-2 -38 -51 -1 c-208 -3
-296 -19 -414 -76 -187 -92 -317 -246 -383 -453 l-23 -75 0 -1565 c0 -861 3
-1585 7 -1610 15 -103 83 -245 161 -336 108 -127 250 -212 407 -244 79 -16
164 -18 996 -18 l909 0 91 -55 c172 -105 346 -185 534 -247 99 -33 256 -75
320 -86 25 -4 47 -8 50 -9 3 -1 30 -5 60 -9 30 -5 63 -10 73 -12 89 -16 382
-22 532 -11 408 32 830 170 1172 383 l71 45 479 1 c527 1 559 4 694 62 212 92
357 267 426 516 4 14 8 732 9 1595 2 1520 2 1572 -17 1645 -55 215 -193 385
-392 484 -139 68 -187 73 -723 73 l-472 1 -112 67 c-419 248 -870 371 -1360
368 -120 0 -268 -9 -300 -18 -8 -2 -44 -7 -80 -10 -36 -4 -68 -9 -71 -11 -4
-2 -24 -6 -45 -10 -246 -37 -631 -191 -882 -351 l-53 -35 -145 0 c-80 0 -147
2 -150 4 -3 3 -7 18 -9 34 -3 16 -8 44 -11 63 -23 136 -162 279 -314 322 -50
14 -538 20 -624 7z m2929 -442 c273 -32 504 -100 740 -216 840 -414 1324
-1322 1200 -2250 -11 -87 -18 -123 -47 -240 -177 -718 -717 -1305 -1419 -1541
-127 -42 -235 -70 -329 -84 -20 -3 -47 -7 -60 -10 -128 -25 -521 -25 -620 0
-8 2 -35 7 -60 10 -265 35 -620 180 -873 354 -484 335 -828 875 -916 1436 -6
39 -13 86 -16 105 -11 59 -14 400 -5 478 13 105 24 178 41 252 6 25 13 56 15
70 11 57 97 297 140 387 229 483 633 875 1115 1081 148 62 325 118 439 137 19
3 60 10 90 16 135 24 417 32 565 15z m-3433 -440 c222 -93 167 -418 -72 -420
-131 -2 -226 99 -222 233 3 72 66 155 142 187 38 16 112 16 152 0z"/>
<path d="M3680 5229 c-201 -30 -345 -76 -535 -171 -66 -33 -122 -63 -125 -67
-3 -5 -16 -14 -30 -21 -87 -45 -262 -198 -369 -321 -88 -101 -89 -102 -150
-194 -147 -223 -248 -512 -275 -785 -5 -51 -3 -49 20 34 90 325 374 631 794
854 259 138 565 232 810 247 52 4 100 8 106 10 8 2 11 70 11 220 l0 216 -71
-3 c-39 -1 -123 -10 -186 -19z"/>
</g>
</svg>
